<svg width="20" height="20" viewBox="0 0 20 20" fill="none" xmlns="http://www.w3.org/2000/svg">
<path d="M9.9643 3.52734C6.98668 3.52734 4.39271 5.23104 3.64353 7.65234H3.09451C2.47371 7.65234 2.00293 8.21207 2.10929 8.82368L2.36332 10.2844C2.48828 11.0028 3.11187 11.5273 3.84114 11.5273H4.10387C4.40323 12.0403 4.79178 12.5053 5.24942 12.9092L4.52039 15.3862C4.47589 15.5374 4.50527 15.7007 4.59968 15.8269C4.69408 15.953 4.84245 16.0273 5.00004 16.0273H7.00004C7.21145 16.0273 7.40001 15.8944 7.47101 15.6953L7.95286 14.3437C8.58751 14.5173 9.26366 14.6107 9.9643 14.6107C10.6708 14.6107 11.3524 14.5157 11.9916 14.3394L12.5352 15.7115C12.6107 15.9021 12.795 16.0273 13 16.0273H15C15.1584 16.0273 15.3074 15.9523 15.4017 15.8251C15.496 15.6979 15.5245 15.5335 15.4784 15.3819L14.7167 12.8757C15.8099 11.8946 16.5 10.5587 16.5 9.06901C16.5 8.92359 16.4935 8.77976 16.4809 8.63767C16.7414 8.52776 16.9878 8.37196 17.185 8.19376C17.5 8.5 18 8.5 18 7.77739C18 8 17.5 8 17.5388 7.75071C17.5804 7.66935 17.6117 7.58403 17.6284 7.49586C17.6718 7.267 17.6126 7.03653 17.4267 6.85061C17.21 6.63386 16.9287 6.63943 16.7201 6.75324C16.5236 6.86041 16.3693 7.07111 16.3449 7.31503C16.3207 7.55771 16.4273 7.79535 16.6651 7.96871C16.5841 8.02492 16.4968 8.07662 16.4064 8.1218C15.8723 5.45792 13.1223 3.52734 9.9643 3.52734ZM17.1371 7.40269C17.1259 7.462 17.0944 7.53377 17.0388 7.6132C17.023 7.60495 17.0083 7.59659 16.9947 7.58819C16.8494 7.49838 16.8376 7.41297 16.8425 7.36478C16.8493 7.29619 16.8982 7.22564 16.9595 7.19218C17.0087 7.16536 17.0399 7.17093 17.0732 7.20417C17.1373 7.26826 17.151 7.32947 17.1371 7.40269ZM8.13809 6.75355C7.87269 6.82982 7.59571 6.67649 7.51945 6.41109C7.44319 6.14568 7.59652 5.86871 7.86192 5.79245C8.52273 5.60257 9.23002 5.5 9.96425 5.5C10.727 5.5 11.4607 5.61068 12.1433 5.81496C12.4079 5.89411 12.5582 6.17275 12.479 6.4373C12.3999 6.70186 12.1212 6.85215 11.8567 6.77299C11.2673 6.59665 10.6303 6.5 9.96425 6.5C9.32314 6.5 8.70882 6.58956 8.13809 6.75355ZM7 8.25C7 8.66421 6.66421 9 6.25 9C5.83579 9 5.5 8.66421 5.5 8.25C5.5 7.83579 5.83579 7.5 6.25 7.5C6.66421 7.5 7 7.83579 7 8.25Z" fill="white"/>
<rect x="0.5" y="0.5" width="19" height="19" rx="2.5" stroke="white"/>
</svg>
