<svg width="20" height="20" viewBox="0 0 20 20" fill="none" xmlns="http://www.w3.org/2000/svg">
<path d="M5.532 12.072C5.204 12.072 4.898 12.018 4.614 11.91C4.334 11.802 4.09 11.65 3.882 11.454C3.678 11.258 3.518 11.028 3.402 10.764C3.29 10.5 3.234 10.212 3.234 9.9C3.234 9.588 3.29 9.3 3.402 9.036C3.518 8.772 3.68 8.542 3.888 8.346C4.096 8.15 4.34 7.998 4.62 7.89C4.9 7.782 5.204 7.728 5.532 7.728C5.864 7.728 6.168 7.782 6.444 7.89C6.724 7.998 6.966 8.15 7.17 8.346C7.378 8.538 7.54 8.766 7.656 9.03C7.772 9.294 7.83 9.584 7.83 9.9C7.83 10.212 7.772 10.502 7.656 10.77C7.54 11.034 7.378 11.264 7.17 11.46C6.966 11.652 6.724 11.802 6.444 11.91C6.168 12.018 5.864 12.072 5.532 12.072ZM6.906 12.966C6.742 12.966 6.586 12.948 6.438 12.912C6.294 12.876 6.15 12.818 6.006 12.738C5.866 12.658 5.718 12.55 5.562 12.414C5.41 12.278 5.244 12.11 5.064 11.91L6.084 11.652C6.192 11.8 6.292 11.918 6.384 12.006C6.476 12.094 6.564 12.156 6.648 12.192C6.736 12.228 6.828 12.246 6.924 12.246C7.18 12.246 7.408 12.142 7.608 11.934L8.04 12.45C7.756 12.794 7.378 12.966 6.906 12.966ZM5.532 11.244C5.72 11.244 5.892 11.212 6.048 11.148C6.208 11.084 6.348 10.992 6.468 10.872C6.588 10.752 6.68 10.61 6.744 10.446C6.812 10.278 6.846 10.096 6.846 9.9C6.846 9.7 6.812 9.518 6.744 9.354C6.68 9.19 6.588 9.048 6.468 8.928C6.348 8.808 6.208 8.716 6.048 8.652C5.892 8.588 5.72 8.556 5.532 8.556C5.344 8.556 5.17 8.588 5.01 8.652C4.85 8.716 4.71 8.808 4.59 8.928C4.474 9.048 4.382 9.19 4.314 9.354C4.25 9.518 4.218 9.7 4.218 9.9C4.218 10.096 4.25 10.278 4.314 10.446C4.382 10.61 4.474 10.752 4.59 10.872C4.71 10.992 4.85 11.084 5.01 11.148C5.17 11.212 5.344 11.244 5.532 11.244ZM8.4945 12V8.772H9.4305V12H8.4945ZM8.9625 8.322C8.7905 8.322 8.6505 8.272 8.5425 8.172C8.4345 8.072 8.3805 7.948 8.3805 7.8C8.3805 7.652 8.4345 7.528 8.5425 7.428C8.6505 7.328 8.7905 7.278 8.9625 7.278C9.1345 7.278 9.2745 7.326 9.3825 7.422C9.4905 7.514 9.5445 7.634 9.5445 7.782C9.5445 7.938 9.4905 8.068 9.3825 8.172C9.2785 8.272 9.1385 8.322 8.9625 8.322ZM11.0372 12L9.87319 8.772H10.7552L11.7212 11.55H11.3012L12.3092 8.772H13.1012L14.0792 11.55H13.6592L14.6552 8.772H15.4832L14.3132 12H13.4072L12.5492 9.618H12.8252L11.9372 12H11.0372ZM15.9183 12V8.772H16.8543V12H15.9183ZM16.3863 8.322C16.2143 8.322 16.0743 8.272 15.9663 8.172C15.8583 8.072 15.8043 7.948 15.8043 7.8C15.8043 7.652 15.8583 7.528 15.9663 7.428C16.0743 7.328 16.2143 7.278 16.3863 7.278C16.5583 7.278 16.6983 7.326 16.8063 7.422C16.9143 7.514 16.9683 7.634 16.9683 7.782C16.9683 7.938 16.9143 8.068 16.8063 8.172C16.7023 8.272 16.5623 8.322 16.3863 8.322Z" fill="white"/>
<rect x="0.5" y="0.5" width="19" height="19" rx="2.5" stroke="white"/>
</svg>
